# xmcd
#
# Track frame offsets:
# 150
# 16330
# 28345
# 43120
# 56165
# 65627
# 75992
# 86920
# 98560
# 110712
# 120815
# 135490
# 146935
# 158857
# 172767
# 182757
# 196155
# 212647
#
# Disc length: 3015 seconds
#
#
# Revision: 0
# Processed by: cddbd v1.5.2PL0 Copyright (c) Steve Scherf et al.
# Submitted via: FreeRIP 2.90 
#
DISCID=f50bc512
DTITLE=Liu e Leu G S 2 - Grandes Sucessos 2
DYEAR=1900
DGENRE=Sertanejo
TTITLE0=Meu ranchinho
TTITLE1=Querencia linda
TTITLE2=Derradeira morada
TTITLE3=Santa cruz da serra
TTITLE4=Dona saudade
TTITLE5=Magoa
TTITLE6=Felicidade de caboclo
TTITLE7=Eu sou caboclo
TTITLE8=Rei da capa
TTITLE9=Cascata
TTITLE10=Aonde eu moro
TTITLE11=Ingrata
TTITLE12=Relembrando
TTITLE13=Retrato do boi soberano
TTITLE14=Adeus morena
TTITLE15=Um pouco de minha vida
TTITLE16=Triste cabana
TTITLE17=Paineira velha
EXTD=
EXTT0=
EXTT1=
EXTT2=
EXTT3=
EXTT4=
EXTT5=
EXTT6=
EXTT7=
EXTT8=
EXTT9=
EXTT10=
EXTT11=
EXTT12=
EXTT13=
EXTT14=
EXTT15=
EXTT16=
EXTT17=
PLAYORDER=
